<?xml version="1.0" encoding="utf-8"?>
<!-- Generator: Adobe Illustrator 24.3.0, SVG Export Plug-In . SVG Version: 6.00 Build 0)  -->
<svg version="1.1" id="Layer_1" xmlns="http://www.w3.org/2000/svg" xmlns:xlink="http://www.w3.org/1999/xlink" x="0px" y="0px"
	 viewBox="0 0 216 144" style="enable-background:new 0 0 216 144;" xml:space="preserve">
<style type="text/css">
	.st0{fill:url(#SVGID_1_);}
	.st1{opacity:0.63;clip-path:url(#SVGID_3_);fill:url(#SVGID_4_);enable-background:new    ;}
	.st2{clip-path:url(#SVGID_3_);}
	.st3{opacity:0.37;fill:#FFFFFF;enable-background:new    ;}
	.st4{font-family:'OstrichSans-Black';}
	.st5{font-size:44.5034px;}
	.st6{fill:#FFFFFF;}
</style>
<linearGradient id="SVGID_1_" gradientUnits="userSpaceOnUse" x1="30.7" y1="73.15" x2="190.2" y2="73.15" gradientTransform="matrix(1 0 0 -1 0 144)">
	<stop  offset="0" style="stop-color:#DB35B0"/>
	<stop  offset="1" style="stop-color:#0022B9"/>
</linearGradient>
<path class="st0" d="M180.4,114.5h-140c-5.4,0-9.7-4.4-9.7-9.7V36.9c0-5.4,4.4-9.7,9.7-9.7h140.1c5.4,0,9.7,4.4,9.7,9.7v67.8
	C190.1,110.1,185.8,114.5,180.4,114.5z"/>
<g>
	<g>
		<defs>
			<path id="SVGID_2_" d="M180.4,114.5h-140c-5.4,0-9.7-4.4-9.7-9.7V36.9c0-5.4,4.4-9.7,9.7-9.7h140.1c5.4,0,9.7,4.4,9.7,9.7v67.8
				C190.1,110.1,185.8,114.5,180.4,114.5z"/>
		</defs>
		<clipPath id="SVGID_3_">
			<use xlink:href="#SVGID_2_"  style="overflow:visible;"/>
		</clipPath>
		
			<linearGradient id="SVGID_4_" gradientUnits="userSpaceOnUse" x1="109.3135" y1="71.3547" x2="149.1885" y2="140.4203" gradientTransform="matrix(1 0 0 -1 0 144)">
			<stop  offset="0.22" style="stop-color:#FFFFFF;stop-opacity:0"/>
			<stop  offset="0.9578" style="stop-color:#FFFFFF"/>
		</linearGradient>
		<polygon class="st1" points="30.6,27.2 190.1,114.5 190.1,27.2 		"/>
		<g class="st2">
			<text transform="matrix(1 0 0 1 -49.791 87.332)" class="st3 st4 st5">coars</text>
			<text transform="matrix(1 0 0 1 41.209 87.332)" class="st3 st4 st5">e</text>
			<text transform="matrix(1 0 0 1 59.109 87.332)" class="st6 st4 st5">coars</text>
			<text transform="matrix(1 0 0 1 150.009 87.332)" class="st6 st4 st5">e</text>
			<text transform="matrix(1 0 0 1 167.909 87.332)" class="st3 st4 st5">coars</text>
			<text transform="matrix(1 0 0 1 258.909 87.332)" class="st3 st4 st5">e</text>
		</g>
	</g>
</g>
</svg>
